<?xml version="1.0" encoding="UTF-8"?>
<svg width="527px" height="66px" viewBox="0 0 527 66" version="1.1" xmlns="http://www.w3.org/2000/svg" xmlns:xlink="http://www.w3.org/1999/xlink">
    <!-- Generator: Sketch 51.3 (57544) - http://www.bohemiancoding.com/sketch -->
    <title>logo</title>
    <desc>Created with Sketch.</desc>
    <defs></defs>
    <g id="Page-1" stroke="none" stroke-width="1" fill="none" fill-rule="evenodd">
        <g id="logo" transform="translate(0.000000, -1.000000)" fill="#FFFFFF" fill-rule="nonzero">
            <path d="M360,50.6 C363.2,50.6 366.2,50.6 369.2,50.6 C369.8,56.9 370,56.1 375.7,56.2 C387.3,56.2 398.9,56.2 410.4,56.2 C414.3,56.2 414.7,55.8 414.7,51.9 C414.7,48.6 414.7,45.2 414.7,41.9 C414.7,39 414.1,38.4 411.2,38.4 C398.5,38.4 385.7,38.2 373,38.5 C364.3,38.7 359.2,32.3 359.8,25.4 C360.1,21.2 359.8,16.9 359.9,12.7 C359.9,6.3 364.8,1.2 371.2,1.2 C385.2,1.1 399.2,1.1 413.2,1.2 C421,1.3 426,8.4 424.3,16.5 C421.3,16.5 418.2,16.5 415.2,16.5 C415.1,16.3 414.9,16.2 414.9,16 C414.7,11.6 415.4,10.8 409.1,10.8 C397.4,10.9 385.8,10.8 374.1,10.8 C370,10.8 369.5,11.4 369.5,15.4 C369.5,18.6 369.5,21.7 369.5,24.9 C369.5,27.9 370.2,28.6 373.2,28.6 C385.8,28.6 398.4,28.6 410.9,28.6 C420.2,28.6 424.7,33.1 424.7,42.4 C424.7,46.2 424.7,50.1 424.7,53.9 C424.6,61 419.7,65.9 412.5,66 C399.6,66 386.7,65.7 373.8,66.1 C365.5,66.3 358.5,61.2 360,50.6 Z" id="Shape"></path>
            <path d="M350.1,16.5 C347,16.5 344,16.5 341,16.5 C340.8,16.2 340.7,16 340.6,15.8 C340,10.8 340,10.8 335.1,10.8 C323.4,10.8 311.6,10.8 299.9,10.8 C295.8,10.8 295.3,11.3 295.3,15.4 C295.3,18.6 295.3,21.7 295.3,24.9 C295.3,28 295.9,28.6 299,28.6 C311.9,28.6 324.8,28.6 337.7,28.6 C343,28.6 347.1,30.6 349.3,35.6 C349.9,37 350.2,38.6 350.2,40.2 C350.3,44.9 350.3,49.7 350.2,54.4 C350.1,61 345.2,65.9 338.6,65.9 C325.4,65.9 312.3,65.6 299.1,66 C290.9,66.2 284,60.8 285.7,50.6 C288.7,50.6 291.7,50.6 294.8,50.6 C294.9,50.7 295,50.8 295.1,51 C295.6,56.2 295.6,56.2 300.7,56.2 C312.4,56.2 324.2,56.2 335.9,56.2 C340,56.2 340.4,55.9 340.4,51.8 C340.4,48.6 340.4,45.5 340.4,42.3 C340.4,38.8 340,38.4 336.6,38.4 C323.9,38.4 311.3,38.2 298.6,38.4 C290.4,38.5 285,32.6 285.5,25.4 C285.8,21.2 285.5,16.9 285.6,12.7 C285.7,6 290.6,1 297.3,1 C311,0.9 324.8,0.9 338.5,1 C346.7,1.1 351.4,7.5 350.1,16.5 Z" id="Shape"></path>
            <path d="M64.7,65.9 C60.6,65.9 57.3,66 53.9,65.8 C53.1,65.8 52.2,65 51.6,64.3 C46.1,57.8 40.5,51.2 35.1,44.6 C34,43.2 32.8,42.7 31.1,42.7 C24,42.8 17,42.7 9.6,42.7 C9.6,50.5 9.6,58 9.6,65.7 C6.2,65.7 3.2,65.7 8.8817842e-15,65.7 C0,44.3 0,22.8 0,1.1 C1,1.1 1.9,1.1 2.8,1.1 C19,1.1 35.1,1.1 51.3,1.1 C59.8,1.1 64.6,5.9 64.6,14.4 C64.6,19.6 64.6,24.7 64.6,29.9 C64.6,37.9 59.8,42.7 51.9,42.7 C50.3,42.7 48.6,42.7 46.3,42.7 C50.4,47.6 54,51.9 57.7,56.2 C59.6,58.4 61.5,60.6 63.3,62.9 C63.9,63.6 64.1,64.6 64.7,65.9 Z M32,33 C38.4,33 44.8,33 51.2,33 C54.1,33 54.7,32.3 54.7,29.4 C54.7,24.5 54.7,19.6 54.7,14.7 C54.7,11.6 54.1,11 51.1,11 C38.4,11 25.8,11 13.1,11 C10.1,11 9.4,11.6 9.4,14.6 C9.4,19.3 9.4,24.1 9.4,28.8 C9.4,32.4 10,32.9 13.7,33 C19.8,33 25.9,33 32,33 Z" id="Shape"></path>
            <path d="M526.9,1 C526.9,22.6 526.9,44.1 526.9,65.7 C523.8,65.7 520.8,65.7 517.4,65.7 C517.4,48.8 517.4,31.9 517.4,15 C517.2,14.9 517,14.8 516.7,14.8 C508,25.2 499.2,35.6 490.3,46.2 C481.4,35.6 472.6,25.3 463.9,14.9 C463.7,15 463.5,15.1 463.3,15.1 C463.3,31.9 463.3,48.8 463.3,65.8 C460,65.8 456.9,65.8 453.7,65.8 C453.7,44.3 453.7,22.8 453.7,1.1 C457.3,1.1 460.9,1 464.4,1.2 C465.2,1.3 466.2,2.3 466.8,3.1 C474.1,11.7 481.3,20.3 488.5,28.9 C489,29.5 489.5,30 490.2,30.8 C490.9,30.1 491.5,29.4 492,28.8 C499.3,20.1 506.6,11.5 513.8,2.7 C514.8,1.5 515.8,1 517.4,1 C520.5,1.1 523.6,1 526.9,1 Z" id="Shape"></path>
            <path d="M74.5,1.2 C94.2,1.2 113.7,1.2 133.5,1.2 C133.5,4.3 133.5,7.4 133.5,10.7 C117.2,10.7 100.9,10.7 84.4,10.7 C84.4,16.7 84.4,22.5 84.4,28.5 C97.5,28.5 110.6,28.5 123.8,28.5 C123.8,31.8 123.8,34.9 123.8,38.2 C110.8,38.2 97.7,38.2 84.5,38.2 C84.5,44.2 84.5,50 84.5,56 C100.8,56 117.1,56 133.6,56 C133.6,59.3 133.6,62.4 133.6,65.7 C114,65.7 94.3,65.7 74.6,65.7 C74.5,44.2 74.5,22.8 74.5,1.2 Z" id="Shape"></path>
            <path d="M217.4,1.1 C237.2,1.1 256.7,1.1 276.4,1.1 C276.4,4.2 276.4,7.3 276.4,10.7 C260.1,10.7 243.7,10.7 227.2,10.7 C227.2,16.8 227.2,22.6 227.2,28.6 C240.4,28.6 253.5,28.6 266.6,28.6 C266.6,31.9 266.6,34.9 266.6,38.3 C253.5,38.3 240.4,38.3 227.1,38.3 C227.1,44.3 227.1,50.1 227.1,56.1 C243.6,56.1 259.9,56.1 276.4,56.1 C276.4,59.5 276.4,62.5 276.4,65.7 C256.7,65.7 237.1,65.7 217.4,65.7 C217.4,44.2 217.4,22.8 217.4,1.1 Z" id="Shape"></path>
            <path d="M207.6,1 C207.6,4 207.7,6.7 207.5,9.5 C207.5,9.9 206.8,10.5 206.3,10.7 C205.7,10.9 205,10.8 204.3,10.8 C188.6,10.8 173,10.8 157.3,10.8 C153.1,10.8 152.7,11.3 152.7,15.4 C152.7,27.6 152.7,39.7 152.7,51.9 C152.7,55.7 153.2,56.2 157,56.2 C172.9,56.2 188.8,56.2 204.7,56.2 C206.8,56.2 207.7,56.6 207.5,58.9 C207.3,61.1 207.5,63.4 207.5,65.8 C206.4,65.8 205.5,65.9 204.7,65.9 C188.3,65.9 171.9,65.9 155.5,65.9 C147.9,65.9 143,61.1 143,53.4 C143,40.1 143,26.7 143,13.4 C143,5.9 147.9,1 155.4,1 C171.9,1 188.4,1 204.9,1 C205.6,1 206.4,1 207.6,1 Z" id="Shape"></path>
            <path d="M443.4,65.8 C440.3,65.8 437.3,65.8 434.1,65.8 C434.1,44.3 434.1,22.9 434.1,1.2 C437.2,1.2 440.2,1.2 443.4,1.2 C443.4,22.7 443.4,44.2 443.4,65.8 Z" id="Shape"></path>
        </g>
    </g>
</svg>